<svg xmlns="http://www.w3.org/2000/svg" xmlns:xlink="http://www.w3.org/1999/xlink" width="200" height="23" viewBox="0 0 200 23"><defs><path id="ea2jb" d="M142.17 5484.634h10.961V5462H142.17z"/><path id="ea2jc" d="M132.03 5484.634h6.916V5462h-6.916z"/><path id="ea2jd" d="M124 5484.634h4.462V5462H124z"/><path id="ea2je" d="M180.7 5478.231c0 .815-.133 1.561-.401 2.238a4.925 4.925 0 0 1-1.184 1.764c-.522.5-1.194.89-2.015 1.168-.822.277-1.763.416-2.825.416h-8.195V5463.6h7.147c2.105 0 3.71.422 4.812 1.265 1.103.842 1.654 2.066 1.654 3.669 0 .63-.095 1.224-.286 1.785-.19.56-.512 1.088-.966 1.584-.454.495-1.026.877-1.716 1.146v.056c1.27.323 2.251.928 2.94 1.812.69.885 1.036 1.99 1.036 3.314zm-10.767-6.35h2.804c.545 0 1.034-.08 1.47-.243a2.415 2.415 0 0 0 1.083-.792c.285-.365.428-.817.428-1.354 0-.482-.109-.894-.326-1.237-.219-.343-.573-.614-1.063-.813-.49-.2-1.107-.298-1.851-.298h-2.545zm6.243 7.267c.3-.384.45-.858.45-1.422 0-.813-.297-1.454-.892-1.92-.596-.468-1.462-.7-2.597-.7h-3.204v5.186h3.162c.71 0 1.325-.095 1.848-.285.522-.19.934-.475 1.233-.86z"/><path id="ea2jf" d="M191.127 5483.281c-1.257-.52-2.323-1.231-3.199-2.14-.876-.907-1.562-2.003-2.056-3.286-.495-1.283-.742-2.665-.742-4.147 0-1.482.247-2.863.742-4.141.494-1.277 1.18-2.372 2.056-3.279.876-.908 1.944-1.621 3.206-2.14 1.261-.518 2.627-.778 4.098-.778 1.442 0 2.784.253 4.023.757 1.238.506 2.302 1.205 3.192 2.099.889.893 1.588 1.984 2.096 3.272.508 1.288.762 2.69.762 4.21 0 1.518-.254 2.925-.762 4.217-.508 1.292-1.207 2.385-2.096 3.279-.89.893-1.954 1.593-3.192 2.098-1.24.505-2.58.757-4.023.757-1.48 0-2.848-.26-4.105-.778m6.5-3.445a5.725 5.725 0 0 0 1.908-1.377c.532-.583.949-1.287 1.253-2.111a7.56 7.56 0 0 0 .457-2.64c0-1.25-.261-2.381-.783-3.39-.523-1.01-1.24-1.798-2.153-2.363s-1.933-.847-3.059-.847c-1.163 0-2.207.294-3.134.883a5.916 5.916 0 0 0-2.146 2.39c-.504 1.004-.756 2.113-.756 3.327 0 1.222.252 2.336.756 3.342a5.965 5.965 0 0 0 2.146 2.397c.927.592 1.971.889 3.134.889.845 0 1.637-.167 2.378-.5"/><path id="ea2jg" d="M216.267 5483.281c-1.257-.52-2.323-1.231-3.199-2.14-.876-.907-1.562-2.003-2.056-3.286-.495-1.283-.742-2.665-.742-4.147 0-1.482.247-2.863.742-4.141.494-1.277 1.18-2.372 2.056-3.279.876-.908 1.944-1.621 3.206-2.14 1.261-.518 2.627-.778 4.098-.778 1.442 0 2.784.253 4.023.757 1.239.506 2.302 1.205 3.192 2.099.889.893 1.588 1.984 2.096 3.272.508 1.288.763 2.69.763 4.21 0 1.518-.255 2.925-.763 4.217-.508 1.292-1.207 2.385-2.096 3.279-.89.893-1.953 1.593-3.192 2.098-1.24.505-2.58.757-4.023.757-1.48 0-2.848-.26-4.105-.778m6.5-3.445a5.725 5.725 0 0 0 1.908-1.377c.532-.583.95-1.287 1.253-2.111a7.56 7.56 0 0 0 .457-2.64c0-1.25-.261-2.381-.783-3.39-.523-1.01-1.24-1.798-2.153-2.363s-1.933-.847-3.058-.847c-1.163 0-2.208.294-3.135.883a5.914 5.914 0 0 0-2.146 2.39c-.504 1.004-.756 2.113-.756 3.327 0 1.222.252 2.336.756 3.342a5.963 5.963 0 0 0 2.146 2.397c.927.592 1.972.889 3.135.889.844 0 1.636-.167 2.377-.5"/><path id="ea2jh" d="M242.057 5475.716l-1.92 2.349v5.752h-3.907V5463.6h3.907v8.906h.028l6.847-8.906h4.956l-7.297 8.92 7.542 11.297h-4.833l-5.282-8.1z"/><path id="ea2ji" d="M278.23 5463.6v20.217h-3.894v-12.56h-.04l-4.833 8.725h-2.546l-4.832-8.726h-.042v12.56h-3.893V5463.6h3.948l6.085 11.505h.054l6.045-11.505z"/><path id="ea2jj" d="M297.882 5479.774h-7.597l-1.348 4.043h-4.097l7.338-20.217h3.784l7.365 20.217h-4.098zm-1.144-3.408l-2.654-7.945h-.027l-2.642 7.945z"/><path id="ea2ja" d="M309.33 5463.6h14.212v20.217H309.33z"/><path id="ea2jl" d="M309.33 5463.6h7.325c1.17 0 2.202.167 3.097.5.893.334 1.613.806 2.157 1.417.545.612.953 1.32 1.226 2.127.271.805.407 1.704.407 2.695 0 1.093-.172 2.056-.517 2.89-.345.834-.837 1.52-1.477 2.056-.64.538-1.401.94-2.286 1.21-.885.268-1.878.402-2.975.402h-3.091v6.92h-3.866zm6.467 9.744c1.198 0 2.112-.277 2.743-.832.631-.555.946-1.309.946-2.261 0-.953-.307-1.707-.919-2.261-.613-.556-1.482-.833-2.607-.833h-2.764v6.187z"/><clipPath id="ea2jk"><use xlink:href="#ea2ja"/></clipPath></defs><g><g transform="translate(-124 -5462)"><g><use fill="#fff" xlink:href="#ea2jb"/></g><g><use fill="#fff" xlink:href="#ea2jc"/></g><g><use fill="#fff" xlink:href="#ea2jd"/></g><g><g><use fill="#fff" xlink:href="#ea2je"/></g><g><use fill="#fff" xlink:href="#ea2jf"/></g><g><use fill="#fff" xlink:href="#ea2jg"/></g><g><use fill="#fff" xlink:href="#ea2jh"/></g><g><use fill="#fff" xlink:href="#ea2ji"/></g><g><use fill="#fff" xlink:href="#ea2jj"/></g><g><g/><g clip-path="url(#ea2jk)"><use fill="#fff" xlink:href="#ea2jl"/></g></g></g></g></g></svg>