<svg viewBox="0 0 674 117" fill="none" xmlns="http://www.w3.org/2000/svg" class="h-8"><path d="M96.918 93.384H69.52v-4.826h27.035A22.1 22.1 0 0 0 109.857 52.4l-.069-.078a26.672 26.672 0 0 0-21.178-10.37 27.152 27.152 0 0 0-6.779.864l-1.913.5-.863-1.775a25.505 25.505 0 0 0-23.121-14.45 25.849 25.849 0 0 0-25.093 20.14l-.451 2.04-2.09-.157c-.588-.05-1.069-.069-1.53-.069a19.756 19.756 0 1 0 0 39.513h22.562v4.826H26.77a24.583 24.583 0 0 1-.137-49.165 30.547 30.547 0 0 1 29.301-21.954 30.331 30.331 0 0 1 26.603 15.46 31.626 31.626 0 0 1 31.067 11.585 26.893 26.893 0 0 1 5.994 12.752c.264 1.536.399 3.092.402 4.65a26.921 26.921 0 0 1-22.856 26.623l-.226.05Z" fill="#36A4DD"></path><path d="M117.773 48.31c-.372-.5-.765-.982-1.167-1.472a35.69 35.69 0 0 0-5.101-5.287 22.16 22.16 0 0 0-3.806-6.416l-.069-.078a26.684 26.684 0 0 0-21.169-10.369 27.073 27.073 0 0 0-6.768.863l-1.962.5-.863-1.775a25.574 25.574 0 0 0-23.122-14.45 25.868 25.868 0 0 0-25.102 20.14l-.451 2.04-2.09-.157c-.579 0-1.06-.059-1.52-.059A19.766 19.766 0 0 0 4.856 50.595a27.85 27.85 0 0 0-4.17 6.69A24.142 24.142 0 0 1 0 51.537a24.612 24.612 0 0 1 24.436-24.573A30.567 30.567 0 0 1 53.746 5 30.311 30.311 0 0 1 80.33 20.51a31.943 31.943 0 0 1 6.112-.6 31.524 31.524 0 0 1 24.965 12.184 26.882 26.882 0 0 1 5.984 12.753c.203 1.144.331 2.301.382 3.462ZM53.109 104.145h-3.846V88.558h-5.306v15.587H40.11a.752.752 0 0 0-.647.372.746.746 0 0 0 0 .746l6.504 11.252a.74.74 0 0 0 .642.367.74.74 0 0 0 .642-.367l6.494-11.252a.74.74 0 0 0 .002-.742.746.746 0 0 0-.64-.376ZM65.675 77.797h3.845v15.587h5.307V77.797h3.846a.745.745 0 0 0 .637-1.118l-6.494-11.252a.746.746 0 0 0-1.285 0l-6.494 11.251a.746.746 0 0 0 .638 1.119Z" fill="#36A4DD"></path><circle cx="65" cy="10" r="8" fill="url(#logo-dark_inline_svg__a)"></circle><circle cx="8" cy="55" r="8" fill="url(#logo-dark_inline_svg__b)"></circle><circle cx="110" cy="85" r="8" fill="url(#logo-dark_inline_svg__c)"></circle><path d="M215.227 58.09c0-22.84-14.182-35.863-32.693-35.863-18.614 0-32.693 13.023-32.693 35.864 0 22.738 14.079 35.863 32.693 35.863 4.364 0 8.489-.715 12.239-2.147l5.625 6.92h13.772l-9.988-12.545c6.818-6.103 11.045-15.648 11.045-28.091ZM177.42 68.728l8.932 11.796a19.587 19.587 0 0 1-3.818.375c-10.739 0-17.727-8.012-17.727-22.807 0-14.796 6.988-22.807 17.727-22.807 10.705 0 17.727 8.011 17.727 22.807 0 7.602-1.875 13.432-5.113 17.284l-5.182-6.648H177.42Zm82.049 1.977c.034 7.023-4.773 10.705-9.989 10.705-5.489 0-9.034-3.852-9.068-10.023v-30.75h-14.523v33.341c.034 12.239 7.193 19.705 17.727 19.705 7.875 0 13.535-4.057 15.887-10.193h.545V93h13.943V40.636h-14.522v30.068ZM300.54 93.99c7.738 0 12.75-3.375 15.307-8.25h.409V93h13.772V57.682c0-12.477-10.568-17.727-22.227-17.727-12.545 0-20.795 6-22.807 15.545l13.432 1.09c.989-3.476 4.091-6.033 9.307-6.033 4.943 0 7.773 2.488 7.773 6.784v.204c0 3.375-3.58 3.819-12.682 4.705-10.364.955-19.671 4.432-19.671 16.125 0 10.364 7.398 15.614 17.387 15.614Zm4.159-10.023c-4.466 0-7.671-2.08-7.671-6.068 0-4.091 3.375-6.102 8.489-6.819 3.171-.443 8.352-1.193 10.091-2.352v5.557c0 5.489-4.534 9.682-10.909 9.682Zm51.119-21.239c.034-6.75 4.057-10.704 9.921-10.704 5.829 0 9.341 3.818 9.306 10.227V93h14.523V59.66c0-12.205-7.159-19.705-18.068-19.705-7.773 0-13.398 3.818-15.75 9.92h-.614v-9.239h-13.841V93h14.523V62.727Zm73.048-22.09h-9.852V28.09h-14.523v12.545h-7.159v10.91h7.159v27.272c-.068 10.261 6.921 15.341 17.455 14.898 3.75-.136 6.409-.886 7.875-1.364l-2.284-10.806c-.716.136-2.25.477-3.614.477-2.897 0-4.909-1.091-4.909-5.114V51.545h9.852V40.636Z" fill="#fff"></path><path d="M485.568 93c21.273 0 34.159-13.16 34.159-34.977 0-21.75-12.886-34.841-33.954-34.841h-24.955V93h24.75Zm-9.988-12.648V35.83h9.409C498.08 35.83 505 42.512 505 58.023c0 15.58-6.92 22.33-20.045 22.33h-9.375Zm69.741 13.637c7.739 0 12.75-3.375 15.307-8.25h.409V93h13.773V57.682c0-12.477-10.569-17.727-22.228-17.727-12.545 0-20.795 6-22.806 15.545l13.431 1.09c.989-3.476 4.091-6.033 9.307-6.033 4.943 0 7.773 2.488 7.773 6.784v.204c0 3.375-3.58 3.819-12.682 4.705-10.364.955-19.67 4.432-19.67 16.125 0 10.364 7.397 15.614 17.386 15.614Zm4.159-10.023c-4.466 0-7.67-2.08-7.67-6.068 0-4.091 3.375-6.102 8.488-6.819 3.171-.443 8.353-1.193 10.091-2.352v5.557c0 5.489-4.534 9.682-10.909 9.682Zm64.449-43.33h-9.852V28.091h-14.523v12.545h-7.159v10.91h7.159v27.272c-.068 10.261 6.92 15.341 17.455 14.898 3.75-.136 6.409-.886 7.875-1.364l-2.285-10.806c-.715.136-2.25.477-3.613.477-2.898 0-4.909-1.091-4.909-5.114V51.545h9.852V40.636Zm24.392 53.353c7.739 0 12.75-3.375 15.307-8.25h.409V93h13.773V57.682c0-12.477-10.569-17.727-22.228-17.727-12.545 0-20.795 6-22.806 15.545l13.431 1.09c.989-3.476 4.091-6.033 9.307-6.033 4.943 0 7.773 2.488 7.773 6.784v.204c0 3.375-3.58 3.819-12.682 4.705-10.364.955-19.67 4.432-19.67 16.125 0 10.364 7.397 15.614 17.386 15.614Zm4.159-10.023c-4.466 0-7.67-2.08-7.67-6.068 0-4.091 3.375-6.102 8.488-6.819 3.171-.443 8.353-1.193 10.091-2.352v5.557c0 5.489-4.534 9.682-10.909 9.682Z" fill="#36A4DD"></path><defs><radialGradient id="logo-dark_inline_svg__a" cx="0" cy="0" r="1" gradientUnits="userSpaceOnUse" gradientTransform="rotate(45 20.429 83.462) scale(21.496)"><stop stop-color="#fff" stop-opacity="0.7"></stop><stop offset="0.151" stop-color="#fff" stop-opacity="0.531"></stop><stop offset="0.333" stop-color="#C4C4C4" stop-opacity="0"></stop></radialGradient><radialGradient id="logo-dark_inline_svg__b" cx="0" cy="0" r="1" gradientUnits="userSpaceOnUse" gradientTransform="rotate(45 -62.39 37.157) scale(21.496)"><stop stop-color="#fff" stop-opacity="0.7"></stop><stop offset="0.151" stop-color="#fff" stop-opacity="0.531"></stop><stop offset="0.333" stop-color="#C4C4C4" stop-opacity="0"></stop></radialGradient><radialGradient id="logo-dark_inline_svg__c" cx="0" cy="0" r="1" gradientUnits="userSpaceOnUse" gradientTransform="rotate(45 -47.604 175.282) scale(21.496)"><stop stop-color="#fff" stop-opacity="0.7"></stop><stop offset="0.151" stop-color="#fff" stop-opacity="0.531"></stop><stop offset="0.333" stop-color="#C4C4C4" stop-opacity="0"></stop></radialGradient></defs></svg>